<?xml version="1.0" standalone="no"?><!DOCTYPE svg PUBLIC "-//W3C//DTD SVG 1.1//EN" "http://www.w3.org/Graphics/SVG/1.1/DTD/svg11.dtd"><svg t="1614069791692" class="icon" viewBox="0 0 1024 1024" version="1.1" xmlns="http://www.w3.org/2000/svg" p-id="3619" xmlns:xlink="http://www.w3.org/1999/xlink" width="200" height="200"><defs><style type="text/css"></style></defs><path d="M363.776 0h565.930667A94.293333 94.293333 0 0 1 1024 94.293333v565.589334a94.293333 94.293333 0 0 1-94.293333 94.293333H363.776a94.293333 94.293333 0 0 1-94.293333-94.293333V93.952A94.293333 94.293333 0 0 1 363.776 0z m0 80.810667a13.482667 13.482667 0 0 0-13.482667 13.482666v565.589334a13.482667 13.482667 0 0 0 13.482667 13.482666h565.930667a13.482667 13.482667 0 0 0 13.482666-13.482666V93.952a13.482667 13.482667 0 0 0-13.482666-13.482667z m309.930667 754.517333a40.448 40.448 0 0 1 80.810666 0v94.293333a94.293333 94.293333 0 0 1-94.293333 94.293334H94.293333A94.293333 94.293333 0 0 1 0 929.621333V363.776a94.293333 94.293333 0 0 1 94.293333-94.293333H188.586667a40.448 40.448 0 0 1 0 80.810666H94.293333a13.482667 13.482667 0 0 0-13.482666 13.482667v565.930667a13.482667 13.482667 0 0 0 13.482666 13.482666h565.589334a13.482667 13.482667 0 0 0 13.482666-13.482666z" p-id="3620"></path></svg>