<?xml version="1.0" encoding="UTF-8"?>
<svg width="377px" height="178px" viewBox="0 0 377 178" version="1.1" xmlns="http://www.w3.org/2000/svg" xmlns:xlink="http://www.w3.org/1999/xlink">
    <!-- Generator: Sketch 55.1 (78136) - https://sketchapp.com -->
    <title>数据为空</title>
    <desc>Created with Sketch.</desc>
    <defs>
        <linearGradient x1="59.1090011%" y1="39.1665781%" x2="62.4770224%" y2="59.3498904%" id="linearGradient-1">
            <stop stop-color="#F1F1FB" offset="0%"></stop>
            <stop stop-color="#FFFFFF" stop-opacity="0.561926355" offset="100%"></stop>
        </linearGradient>
        <path d="M4.60728063,26.276999 C15.804609,21.9350852 23.7741982,18.2148637 28.5160485,15.1163345 C35.6288238,10.4685408 36.2962849,12.0283588 38.7353079,12.7959931 C41.1743309,13.5636274 57.8113097,17.0562449 64.5630645,10.9219428 C71.3148193,4.78764065 74.9081018,0 77.6753669,0 C79.5202103,0 84.0435882,3.6406476 91.2455007,10.9219428 C102.618054,23.8345878 108.95929,31.4109273 110.269209,33.6509612 C111.579128,35.890995 111.128056,40.674008 108.915992,48 L0,48 L0,31.1306691 L4.60728063,26.276999 Z" id="path-2"></path>
        <linearGradient x1="5.72989928%" y1="50%" x2="43.0820312%" y2="60.6750781%" id="linearGradient-4">
            <stop stop-color="#D9DDFB" offset="0%"></stop>
            <stop stop-color="#DDE1F7" stop-opacity="0.286330857" offset="100%"></stop>
        </linearGradient>
        <linearGradient x1="83.9574392%" y1="0%" x2="83.9574392%" y2="84.8557267%" id="linearGradient-5">
            <stop stop-color="#D9DDFB" offset="0%"></stop>
            <stop stop-color="#FFFFFF" stop-opacity="0.470088505" offset="100%"></stop>
        </linearGradient>
        <linearGradient x1="50%" y1="-6.38844937%" x2="50%" y2="50%" id="linearGradient-6">
            <stop stop-color="#F1F1FB" offset="0%"></stop>
            <stop stop-color="#FFFFFF" stop-opacity="0.561926355" offset="100%"></stop>
        </linearGradient>
        <linearGradient x1="59.1090011%" y1="22.8634162%" x2="62.4770224%" y2="73.4204934%" id="linearGradient-7">
            <stop stop-color="#F1F1FB" offset="0%"></stop>
            <stop stop-color="#FFFFFF" stop-opacity="0.561926355" offset="100%"></stop>
        </linearGradient>
        <path d="M0,47.4873047 L19.3017578,24 C25.9697266,15.6666667 30.7457682,9.89949544 33.6298828,6.69848633 C42.6987824,-3.36686626 46.3811035,1.85327148 49.5275879,6.69848633 C51.6252441,9.92862956 57.7840877,13.1958008 68.0041187,16.5 L68.0041187,47.4873047 L0,47.4873047 Z" id="path-8"></path>
        <linearGradient x1="31.2782257%" y1="50%" x2="67.8310335%" y2="59.5226369%" id="linearGradient-10">
            <stop stop-color="#D9DDFB" offset="0%"></stop>
            <stop stop-color="#F1F3FF" stop-opacity="0" offset="100%"></stop>
        </linearGradient>
        <linearGradient x1="100%" y1="50%" x2="8.78328982%" y2="51.0779241%" id="linearGradient-11">
            <stop stop-color="#C3C9FB" offset="0%"></stop>
            <stop stop-color="#CAD1F9" offset="100%"></stop>
        </linearGradient>
        <linearGradient x1="120.652635%" y1="51.1556624%" x2="-40.3489536%" y2="48.0357926%" id="linearGradient-12">
            <stop stop-color="#A9B1F5" offset="0%"></stop>
            <stop stop-color="#D2D9F9" offset="49.4893729%"></stop>
            <stop stop-color="#C1C8F9" offset="100%"></stop>
        </linearGradient>
        <polygon id="path-13" points="0 0.466031746 49.6095694 0.466031746 49.6095694 48 0 48"></polygon>
        <linearGradient x1="0%" y1="37.0125065%" x2="92.503336%" y2="68.4592424%" id="linearGradient-15">
            <stop stop-color="#DEE1F6" offset="0%"></stop>
            <stop stop-color="#C0CFF6" offset="100%"></stop>
        </linearGradient>
        <linearGradient x1="80.9657768%" y1="50.604419%" x2="12.0127493%" y2="51.2543952%" id="linearGradient-16">
            <stop stop-color="#EEEEEE" stop-opacity="0.0570367133" offset="0%"></stop>
            <stop stop-color="#EEEEEE" stop-opacity="0.0570367133" offset="4.49330469%"></stop>
            <stop stop-color="#E4E5F2" offset="100%"></stop>
        </linearGradient>
        <linearGradient x1="91.0653098%" y1="72.7614183%" x2="12.7415707%" y2="72.7614183%" id="linearGradient-17">
            <stop stop-color="#8684E8" offset="0%"></stop>
            <stop stop-color="#B1BBF8" offset="100%"></stop>
        </linearGradient>
        <polygon id="path-18" points="1.86816406 10.0803787 52.1545711 0.263671875 52.8681641 57.8745115 1.86816406 76.2636719"></polygon>
        <polygon id="path-20" points="2.86816406 10.9485427 53.1545711 1.13183594 59.8681641 18.7273158 9.53759766 34.1318359"></polygon>
        <filter x="-14.0%" y="-21.2%" width="128.1%" height="148.5%" filterUnits="objectBoundingBox" id="filter-21">
            <feGaussianBlur stdDeviation="2" in="SourceGraphic"></feGaussianBlur>
        </filter>
        <filter x="-16.7%" y="-25.8%" width="133.3%" height="157.6%" filterUnits="objectBoundingBox" id="filter-22">
            <feOffset dx="0" dy="1" in="SourceAlpha" result="shadowOffsetOuter1"></feOffset>
            <feGaussianBlur stdDeviation="1" in="shadowOffsetOuter1" result="shadowBlurOuter1"></feGaussianBlur>
            <feColorMatrix values="0 0 0 0 0.483605061   0 0 0 0 0.475967482   0 0 0 0 0.857846467  0 0 0 1 0" type="matrix" in="shadowBlurOuter1"></feColorMatrix>
        </filter>
        <linearGradient x1="23.8140582%" y1="65.5190232%" x2="76.1859418%" y2="45.9539663%" id="linearGradient-23">
            <stop stop-color="#CDD2FD" offset="0%"></stop>
            <stop stop-color="#E7EBFF" offset="100%"></stop>
        </linearGradient>
        <polygon id="path-24" points="2.47268872e-12 9.81670678 55 0 54.3000556 58.110847 2.47268872e-12 76"></polygon>
        <filter x="-10.0%" y="-18.2%" width="120.0%" height="136.4%" filterUnits="objectBoundingBox" id="filter-26">
            <feGaussianBlur stdDeviation="2" in="SourceGraphic"></feGaussianBlur>
        </filter>
        <linearGradient x1="109.641707%" y1="41.7751175%" x2="-23.9941257%" y2="61.7542045%" id="linearGradient-27">
            <stop stop-color="#A9B1F5" offset="0%"></stop>
            <stop stop-color="#DDE3FF" offset="100%"></stop>
        </linearGradient>
        <linearGradient x1="10.9893643%" y1="58.3335616%" x2="100%" y2="43.9658118%" id="linearGradient-28">
            <stop stop-color="#DDE0FD" offset="0%"></stop>
            <stop stop-color="#EAEDF9" offset="100%"></stop>
        </linearGradient>
        <linearGradient x1="44.1885318%" y1="-55.3850446%" x2="44.1885318%" y2="100%" id="linearGradient-29">
            <stop stop-color="#D9DDFB" offset="0%"></stop>
            <stop stop-color="#EDEFFA" stop-opacity="0.225879589" offset="100%"></stop>
        </linearGradient>
    </defs>
    <g id="页面1" stroke="none" stroke-width="1" fill="none" fill-rule="evenodd">
        <g id="图标反馈页面" transform="translate(-92.000000, -175.000000)">
            <g id="数据为空" transform="translate(92.000000, 175.000000)">
                <g id="编组-3">
                    <g id="编组-7备份-7" transform="translate(6.000000, 94.000000)">
                        <mask id="mask-3" fill="white">
                            <use xlink:href="#path-2"></use>
                        </mask>
                        <use id="蒙版" fill="url(#linearGradient-1)" opacity="0.495582217" xlink:href="#path-2"></use>
                        <path d="M45.7128356,11.5524001 C43.0058562,11.8540614 40.2472621,11.8540614 37.4370535,11.5524001 C35.6684534,11.7114242 34.5850023,12.2122007 34.1867002,13.0547297 C33.589247,14.3185232 33.8471338,24.6425424 44.0120978,32.1732531 C47.3359885,34.6357566 53.0251487,36.5400841 60.4461903,35.8611962 C65.5853516,35.3910581 72.9369116,30.881804 82.5008704,22.3334339 C84.0204552,19.4911141 84.3848007,17.2003503 83.5939068,15.4611424 C81.7301201,11.3625989 74.7572285,11.5524001 74.2491027,8.66908114 C73.5757926,4.84843721 77.2802908,3.65956032 77.1962937,3.28867593 C77.0309215,2.55848481 77.7132153,1.31193089 79.243175,-0.450985827 C76.6577802,-0.816995276 75.3650828,-1 75.3650828,-1 C75.3650828,-1 70.1030284,3.28867593 70.1030284,3.28867593 C70.1030284,3.28867593 59.0799712,9.23699254 58.2145359,9.23699254 C57.3491007,9.23699254 52.0411076,10.8471882 45.7128356,11.5524001 Z" id="路径-4" fill="url(#linearGradient-4)" opacity="0.45405506" mask="url(#mask-3)"></path>
                        <path d="M77.2070835,0.284968606 C77.7678729,0.984053602 76.7560237,3.15239331 75.1847512,4.76773821 C74.3446013,5.63145343 73.4518439,6.81341659 73.4518439,8.32981577 C73.4518439,9.84621496 73.9844041,11.0680265 76.1959174,12.0834982 C81.3584961,14.4540254 82.5373899,15.0233714 82.9881461,17.161027 C83.4389024,19.2986827 83.7597437,21.9564636 79.8799011,25.2169545 C76.0000585,28.4774454 76.1812716,28.5896127 72.284962,31.4587727 C68.3886524,34.3279327 65.8171411,35.452984 63.934437,36.3000343 C63.032147,36.705985 61.9537485,37.0033211 60.6992415,37.1920427 C59.1988263,37.4177375 58.1654795,38.8170395 58.3911938,40.3174518 C58.4279901,40.5620517 58.4976509,40.8005621 58.5982875,41.0265164 L59.1398687,42.2425016 C59.7825503,43.6854635 61.2142253,44.6150716 62.7938387,44.6150716 C69.5324825,44.6150716 76.1469544,44.6150716 82.6372544,44.6150716 C93.6205297,44.6150716 118.053946,47.1315048 114.683747,39.2961616 C112.436947,34.0725994 103.982055,22.7481384 89.3190706,5.32277863 C80.4333787,0.953196598 76.3960497,-0.726073409 77.2070835,0.284968606 Z" id="路径-5" fill="url(#linearGradient-5)" mask="url(#mask-3)"></path>
                    </g>
                    <path d="M-4.0889514e-13,178 C10.2901036,152.696805 90.7584594,133 188.5,133 C286.241541,133 366.709896,152.696805 377,178 L-4.12114787e-13,178 Z" id="形状结合备份" fill="url(#linearGradient-6)"></path>
                    <g id="编组-7备份-8" transform="translate(263.000000, 94.000000)">
                        <mask id="mask-9" fill="white">
                            <use xlink:href="#path-8"></use>
                        </mask>
                        <use id="蒙版" fill="url(#linearGradient-7)" opacity="0.495582217" xlink:href="#path-8"></use>
                        <path d="M45.3388672,4.54747351e-13 C40.483724,4.78515625 38.285319,9.09065755 38.7436523,12.9165039 C39.4311523,18.6552734 52.1147461,32.7148438 46.6084595,38.439209 C52.8118896,39.3726196 43.6657844,37.7084882 58.7441406,40.6386719 C62.8972168,42 63.5144043,42 67,43.5419922 C67,34.8466797 67,22.4785037 67,6.43746417 C58.5976563,5.44530056 54.078125,4.94921875 53.4414062,4.94921875 C52.8046875,4.94921875 50.1038411,3.29947917 45.3388672,4.54747351e-13 Z" id="路径-6" fill="url(#linearGradient-10)" opacity="0.264206659" mask="url(#mask-9)"></path>
                    </g>
                    <g id="编组-16" transform="translate(121.000000, 67.000000)">
                        <path d="M5.14574698,28 C5.73823083,28 24.0715642,26.6666667 60.145747,24 L60.145747,37.8167068 C22.8865965,31.2722356 4.55326313,28 5.14574698,28 Z" id="路径-9" fill="url(#linearGradient-11)"></path>
                        <polygon id="路径-9备份" fill="url(#linearGradient-12)" points="60.1318359 24 110.418243 28 60.1318359 37.8167068"></polygon>
                        <g id="编组" transform="translate(34.131836, 0.000000)">
                            <g transform="translate(0.868164, 0.000000)">
                                <mask id="mask-14" fill="white">
                                    <use xlink:href="#path-13"></use>
                                </mask>
                                <g id="Clip-2"></g>
                                <path d="M43.3478469,15.340546 L40.1592105,18.229181 C39.8538278,18.508546 39.3916268,18.1733079 39.548445,17.7877841 L41.0616029,14.1420698 C41.9117225,12.0887365 41.4550239,9.71692698 39.9033493,8.14410159 L36.6789474,4.87273651 C30.895933,-1.00510476 21.5143541,-1.00510476 15.7285885,4.87273651 L2.36052632,18.4470857 C-0.786842105,21.6430222 -0.786842105,26.8224508 2.36052632,30.0183873 L15.7285885,43.5927365 C21.5143541,49.4705778 30.895933,49.4705778 36.6789474,43.5927365 L39.955622,40.1844825 C41.4770335,38.5976889 41.9089713,36.237054 41.0505981,34.2060698 L39.5677033,30.6972444 C39.408134,30.3117206 39.8730861,29.9736889 40.1784689,30.253054 L43.3478469,33.124927 C44.4730861,34.1446095 46.2255981,33.9267048 47.0729665,32.6583873 C50.4569378,27.5879111 50.4569378,20.8775619 47.0729665,15.8070857 C46.2255981,14.5387683 44.4730861,14.3208635 43.3478469,15.340546" id="Fill-1" fill="url(#linearGradient-15)" mask="url(#mask-14)"></path>
                            </g>
                            <path d="M19.2001176,13.8203292 C18.1854818,14.7163071 17.0076337,14.4081364 16.6132041,13.2867372 C16.1942928,12.0968557 12.2282362,10.5731225 9.18976888,14.7048934 C7.13057486,17.5012577 7.72085901,20.2205793 9.30129722,21.7842606 C10.3839382,22.8514445 11.7630814,22.9855558 13.710747,21.9041048 C15.6801744,20.8083865 17.146364,21.1336779 18.188202,23.1995633 C19.4231743,25.6506622 27.5239403,26.5609073 28.7779541,19.5500226 C29.3410362,16.402686 27.2247179,12.7331712 23.6422099,12.4050264 C21.5258916,12.210993 19.6516714,13.4065814 19.2001176,13.8203292" id="Fill-3" fill="#FFFFFF"></path>
                            <path d="M29.0459251,26.9978334 C29.7639028,25.2823519 32.6504662,22.6194311 37.7993919,23.0454985 C43.7278364,23.5304303 40.3225707,40.6656244 33.9047292,34.7651527 C33.9047292,34.7651527 27.7564957,30.0756092 29.0459251,26.9978334" id="Fill-5" fill="#A1B0E6"></path>
                            <path d="M8.81692423,21.8169953 C11.1541857,19.5373652 12.2107938,22.7751432 13.6546405,22.5553845 C19.1257684,21.7203015 20.1796105,25.3126235 19.7979039,26.9886497 C19.1368324,29.880674 15.2616806,31.6475339 12.2578156,30.7772895 C7.42286534,29.3679038 7.09647854,23.4959517 8.81692423,21.8169953" id="Fill-7" fill="#A1B0E6"></path>
                            <path d="M14.9031995,14.6236343 C13.6870808,13.5351107 11.7886907,13.9077105 10.6635415,15.4593224 C9.54078616,17.0135959 9.61499813,19.1560447 10.8335108,20.2445683 C11.8964177,21.1973592 13.8809895,21.5034233 15.1545626,19.6271173 C15.4370469,19.2145961 14.0102619,18.7089249 14.1227769,18.2724509 C14.2376857,17.8386383 15.8895006,17.4686999 15.8679551,17.0535173 C15.8200765,15.9969307 15.4011379,15.0707541 14.9031995,14.6236343" id="Fill-9" fill="#A1B0E6"></path>
                            <path d="M23.0556043,14.0035406 C20.9696556,13.9191163 18.1124829,15.3386949 17.8786866,18.8845144 C17.6691809,22.0582417 20.6295883,23.9968732 23.0586406,24 C24.3612199,24 26.1526459,23.2839571 27.1424847,21.7205446 C27.3307362,21.4234962 25.7670339,20.5855071 25.8854502,20.2259223 C26.0524475,19.7350108 27.8681641,19.694362 27.8681641,19.0815043 C27.8681641,16.7395124 26.4046601,14.1379941 23.0556043,14.0035406" id="Fill-11" fill="#A1B0E6"></path>
                            <path d="M10.5977238,25.3034574 C10.5977238,25.3034574 12.0443254,27.875306 14.9117246,26.1460317" id="Stroke-13" stroke="#9FA7C0" stroke-width="0.413" stroke-linecap="round" transform="translate(12.754724, 26.023697) rotate(6.000000) translate(-12.754724, -26.023697) "></path>
                        </g>
                        <g id="矩形备份-6" transform="translate(58.131836, 27.868164)">
                            <polygon id="路径-10" fill="url(#linearGradient-16)" points="0.868164063 76.6318359 78.8302128 72.8271484 107.789062 52.1318359 52.1545711 53.7549419"></polygon>
                            <mask id="mask-19" fill="white">
                                <use xlink:href="#path-18"></use>
                            </mask>
                            <use id="蒙版" fill="url(#linearGradient-17)" xlink:href="#path-18"></use>
                            <g filter="url(#filter-21)" mask="url(#mask-19)">
                                <use fill="black" fill-opacity="1" filter="url(#filter-22)" xlink:href="#path-20"></use>
                                <use fill="#8D8DEA" fill-rule="evenodd" xlink:href="#path-20"></use>
                            </g>
                        </g>
                        <g id="矩形备份-8" transform="translate(5.000000, 28.131836)">
                            <mask id="mask-25" fill="white">
                                <use xlink:href="#path-24"></use>
                            </mask>
                            <use id="蒙版" fill="url(#linearGradient-23)" transform="translate(27.500000, 38.000000) scale(-1, 1) translate(-27.500000, -38.000000) " xlink:href="#path-24"></use>
                            <polygon fill="#B1BBF8" filter="url(#filter-26)" mask="url(#mask-25)" transform="translate(24.000000, 17.368164) scale(-1, 1) translate(-24.000000, -17.368164) " points="-6 10.6848708 49 0.868164062 54 19.5035315 0.699315492 33.8681641"></polygon>
                        </g>
                        <polygon id="矩形" fill="url(#linearGradient-27)" points="60 37.9485427 110.286407 28.1318359 117 45.7273158 66.6694336 61.1318359"></polygon>
                        <polygon id="矩形备份-7" fill="url(#linearGradient-28)" transform="translate(30.000000, 44.631836) scale(-1, 1) translate(-30.000000, -44.631836) " points="0 37.9485427 55 28.1318359 60 46.7672034 6.69931549 61.1318359"></polygon>
                    </g>
                    <path d="M146.507361,138.96707 L158.837361,141.129949 L158.837361,142.342986 L153.311361,141.333572 L153.311361,145.421724 L160.349361,146.885178 L160.349361,148.127178 L144.995361,144.821568 L144.995361,143.692528 L151.997361,145.148496 L151.997361,141.093548 L146.507361,140.09071 L146.507361,138.96707 Z M154.337361,135.462703 C156.227361,136.580517 157.955361,137.887646 159.503361,139.366247 L158.765361,140.33275 C157.109361,138.708285 155.399361,137.38187 153.653361,136.348517 L154.337361,135.462703 Z M150.575361,135.034207 L151.385361,136.03893 C149.981361,137.008496 148.235361,137.71631 146.147361,138.145576 L145.589361,136.966299 C147.605361,136.613574 149.261361,135.968888 150.575361,135.034207 Z M152.735361,131.190464 C152.969361,131.752244 153.203361,132.384523 153.419361,133.085232 L160.313361,133.99244 L160.313361,137.609669 L158.999361,137.408594 L158.999361,135.015882 L146.345361,133.260296 L146.345361,135.455707 L145.031361,135.254772 L145.031361,131.981423 L152.087361,132.909949 C151.853361,132.297956 151.601361,131.736623 151.331361,131.225886 L152.735361,131.190464 Z" id="空" fill="#C9CFFA" fill-rule="nonzero" transform="translate(152.672361, 139.658821) rotate(4.000000) translate(-152.672361, -139.658821) "></path>
                    <path d="M51,18 C58.9841519,1.8427172 67.4285136,-3.43715779 76.3330851,2.16037504 C80.1401578,4.90406457 82.369008,7.34411383 85,7.34411383 C87.630992,7.34411383 90.5068592,5.37823346 92.7154,5.37823346 C94.9239407,5.37823346 96.9165915,5.51862983 103.671814,10.6298526 C110.427037,15.7410753 115.367852,14.7675721 116.226081,14.7675721 C116.798234,14.7675721 117.722873,14.7675721 119,14.7675721 L119,18 L51,18 Z" id="路径-7备份-4" fill="url(#linearGradient-29)" opacity="0.781691778"></path>
                    <path d="M220,95 C255.122955,88.6258065 272.352308,82.921869 271.688058,77.8881877 C270.691683,70.3376658 262.528994,66.5437198 253.369929,70.599158 C244.210865,74.6545962 259.709041,91.4774194 275.651039,89.4645161 C291.593036,87.4516129 292.284923,69.0004089 276.647413,47.7301915 C266.222407,33.5500466 249.421605,23.3066495 226.245008,17" id="路径-11" stroke="#C7CDFB" stroke-width="0.6" stroke-linecap="round" stroke-linejoin="round" stroke-dasharray="1,2"></path>
                    <g id="编组-21" transform="translate(201.000000, 2.000000)">
                        <polygon id="路径-13" fill="#A2A8F3" points="14 7 26.8333333 10.4680307 21.3768077 14"></polygon>
                        <polygon id="路径-12" fill="#C7CDFB" points="0 0 28 5.13431585 26.9381081 10.7476159 14.9084321 7.69342442 25.2443419 17.9860912 23.4873081 24.5"></polygon>
                    </g>
                </g>
            </g>
        </g>
    </g>
</svg>