<?xml version="1.0" encoding="UTF-8"?>
<svg width="12px" height="12px" viewBox="0 0 12 12" version="1.1" xmlns="http://www.w3.org/2000/svg" xmlns:xlink="http://www.w3.org/1999/xlink">
    <!-- Generator: Sketch 55.1 (78136) - https://sketchapp.com -->
    <title>close-circle</title>
    <desc>Created with Sketch.</desc>
    <g id="页面1" stroke="none" stroke-width="1" fill="none" fill-rule="evenodd">
        <g id="绑定手机3" transform="translate(-996.000000, -675.000000)">
            <g id="close-circle备份-2" transform="translate(996.000000, 675.000000)">
                <path d="M9,3.14268728 C9,3.06420927 8.93771626,3 8.8615917,3 L7.71972318,3.00535077 L6,5.11890606 L4.28200692,3.00713436 L3.1384083,3.00178359 C3.06228374,3.00178359 3,3.06420927 3,3.14447087 C3,3.1783591 3.01211073,3.21046373 3.03287197,3.2372176 L5.28373702,6.00178359 L3.03287197,8.76456599 C3.01211073,8.79131986 3,8.82342449 3,8.85731272 C3,8.93579073 3.06228374,9 3.1384083,9 L4.28200692,8.99464923 L6,6.88109394 L7.71799308,8.99286564 L8.85986159,8.99821641 C8.93598616,8.99821641 8.9982699,8.93579073 8.9982699,8.85552913 C8.9982699,8.8216409 8.98615917,8.78953627 8.96539792,8.7627824 L6.71799308,6 L8.96885813,3.23543401 C8.98961938,3.21046373 9,3.17657551 9,3.14268728 Z" id="路径" fill="#F56C6C" fill-rule="nonzero"></path>
                <rect id="矩形" x="0" y="0" width="12" height="12"></rect>
            </g>
        </g>
    </g>
</svg>