<?xml version="1.0" encoding="UTF-8"?>
<svg width="22px" height="22px" viewBox="0 0 22 22" version="1.1" xmlns="http://www.w3.org/2000/svg" xmlns:xlink="http://www.w3.org/1999/xlink">
    <!-- Generator: Sketch 55.1 (78136) - https://sketchapp.com -->
    <title>close-circle</title>
    <desc>Created with Sketch.</desc>
    <g id="页面1" stroke="none" stroke-width="1" fill="none" fill-rule="evenodd">
        <g id="绑定手机3" transform="translate(-973.000000, -532.000000)">
            <g id="close-circle" transform="translate(973.000000, 532.000000)">
                <path d="M11,17.6428571 C7.33214286,17.6428571 4.35714286,14.6678571 4.35714286,11 C4.35714286,7.33214286 7.33214286,4.35714286 11,4.35714286 C14.6678571,4.35714286 17.6428571,7.33214286 17.6428571,11 C17.6428571,14.6678571 14.6678571,17.6428571 11,17.6428571 Z" id="形状" fill="#000000" fill-rule="nonzero"></path>
                <path d="M11,3 C6.58214286,3 3,6.58214286 3,11 C3,15.4178571 6.58214286,19 11,19 C15.4178571,19 19,15.4178571 19,11 C19,6.58214286 15.4178571,3 11,3 Z" id="路径" fill="#F56C6C" fill-rule="nonzero"></path>
                <path d="M14,8.14268728 C14,8.06420927 13.9377163,8 13.8615917,8 L12.7197232,8.00535077 L11,10.1189061 L9.28200692,8.00713436 L8.1384083,8.00178359 C8.06228374,8.00178359 8,8.06420927 8,8.14447087 C8,8.1783591 8.01211073,8.21046373 8.03287197,8.2372176 L10.283737,11.0017836 L8.03287197,13.764566 C8.01211073,13.7913199 8,13.8234245 8,13.8573127 C8,13.9357907 8.06228374,14 8.1384083,14 L9.28200692,13.9946492 L11,11.8810939 L12.7179931,13.9928656 L13.8598616,13.9982164 C13.9359862,13.9982164 13.9982699,13.9357907 13.9982699,13.8555291 C13.9982699,13.8216409 13.9861592,13.7895363 13.9653979,13.7627824 L11.7179931,11 L13.9688581,8.23543401 C13.9896194,8.21046373 14,8.17657551 14,8.14268728 Z" id="路径" fill="#FFFFFF" fill-rule="nonzero"></path>
                <rect id="矩形" x="0" y="0" width="22" height="22"></rect>
            </g>
        </g>
    </g>
</svg>