<?xml version="1.0" encoding="UTF-8"?>
<svg width="22px" height="22px" viewBox="0 0 22 22" version="1.1" xmlns="http://www.w3.org/2000/svg" xmlns:xlink="http://www.w3.org/1999/xlink">
    <!-- Generator: Sketch 55.1 (78136) - https://sketchapp.com -->
    <title>编组 17</title>
    <desc>Created with Sketch.</desc>
    <g id="页面1" stroke="none" stroke-width="1" fill="none" fill-rule="evenodd">
        <g id="绑定手机3" transform="translate(-973.000000, -466.000000)">
            <g id="编组-17" transform="translate(973.000000, 466.000000)">
                <path d="M11,17.5390625 C7.38945313,17.5390625 4.4609375,14.6105469 4.4609375,11 C4.4609375,7.38945313 7.38945313,4.4609375 11,4.4609375 C14.6105469,4.4609375 17.5390625,7.38945313 17.5390625,11 C17.5390625,14.6105469 14.6105469,17.5390625 11,17.5390625 Z" id="形状" fill="#000000" fill-rule="nonzero"></path>
                <path d="M11,3.125 C6.65117188,3.125 3.125,6.65117188 3.125,11 C3.125,15.3488281 6.65117188,18.875 11,18.875 C15.3488281,18.875 18.875,15.3488281 18.875,11 C18.875,6.65117188 15.3488281,3.125 11,3.125 Z" id="路径" fill="#73DD02" fill-rule="nonzero"></path>
                <path d="M14.2871094,8.20507812 L13.4626953,8.20507812 C13.2833984,8.20507812 13.1128906,8.29121094 13.0074219,8.43886719 L10.2441406,12.2708984 L8.99257812,10.5341797 C8.88710937,10.3882813 8.71835937,10.3003906 8.53730469,10.3003906 L7.71289062,10.3003906 C7.59863281,10.3003906 7.53183594,10.4304687 7.59863281,10.5236328 L9.78886719,13.5611328 C10.0121094,13.8722656 10.4744141,13.8722656 10.6976562,13.5611328 L14.3996094,8.42832031 C14.4681641,8.33515625 14.4013672,8.20507812 14.2871094,8.20507812 Z" id="路径" fill="#FFFFFF" fill-rule="nonzero"></path>
                <rect id="矩形" x="0" y="0" width="22" height="22"></rect>
            </g>
        </g>
    </g>
</svg>